<?xml version="1.0"?><svg xmlns="http://www.w3.org/2000/svg"  viewBox="0 0 24 24" width="512px" height="512px">    <path d="M 12 0 C 12 0 10 2.895 10 4 C 10 5.105 10.895 6 12 6 C 13.105 6 14 5.105 14 4 C 14 2.895 12 0 12 0 z M 11 7 L 11 9 L 6 9 C 4.346 9 3 10.346 3 12 L 3 21 C 3 21.552 3.448 22 4 22 L 20 22 C 20.552 22 21 21.552 21 21 L 21 12 C 21 10.346 19.654 9 18 9 L 13 9 L 13 7 L 11 7 z M 6 11 L 18 11 C 18.551 11 19 11.449 19 12 L 19 14.958984 C 18.437937 14.9627 17.874705 14.750719 17.494141 14.316406 L 15.5 12.037109 L 13.505859 14.316406 C 12.745859 15.184406 11.254141 15.184406 10.494141 14.316406 L 8.5 12.037109 L 6.5058594 14.316406 C 6.1252949 14.751337 5.5620629 14.962901 5 14.958984 L 5 12 C 5 11.449 5.449 11 6 11 z M 8.5 15.074219 L 8.9902344 15.634766 C 9.7502344 16.502766 10.847 17 12 17 C 13.153 17 14.249766 16.502766 15.009766 15.634766 L 15.5 15.074219 L 15.990234 15.634766 C 16.750234 16.502766 17.847 17 19 17 L 19 20 L 5 20 L 5 17 C 6.153 17 7.2497656 16.502766 8.0097656 15.634766 L 8.5 15.074219 z"/></svg>